# xmcd
#
# Track frame offsets:
#	150
#	13835
#	25852
#	36414
#	49450
#	64492
#	76735
#	88840
#	99864
#	111215
#	121369
#
# Disc length: 1775 seconds
#
# Revision: 1
# Processed by: cddbd v1.5.2PL0 Copyright (c) Steve Scherf et al.
# Submitted via: audiograbber 1.83.01
#
DISCID=9006ed0b
DTITLE=Johnny Paycheck - Someone To Give My Love
DYEAR=1972
DGENRE=Country
TTITLE0=Someone To Give My Love To
TTITLE1=Smile, Somebody Loves You
TTITLE2=Something
TTITLE3=Your Love Is The Key To It All
TTITLE4=Mr Bojangles
TTITLE5=Love Is A Good Thing
TTITLE6=A Heart Don't Need Eyes
TTITLE7=She's All I Live For
TTITLE8=The Rain Never Falls In Denver
TTITLE9=High On The Thought Of You
TTITLE10=It's Only A Matter Of Wine
EXTD=
EXTT0=
EXTT1=
EXTT2=
EXTT3=
EXTT4=
EXTT5=
EXTT6=
EXTT7=
EXTT8=
EXTT9=
EXTT10=
PLAYORDER=
